<svg xmlns="http://www.w3.org/2000/svg"  viewBox="0 0 100 100" width="100px" height="100px"><path fill="#6b6aaf" d="M69,82H31c-7.18,0-13-5.82-13-13V31c0-7.18,5.82-13,13-13h38c7.18,0,13,5.82,13,13v38	C82,76.18,76.18,82,69,82z"/><path fill="#1f212b" d="M30,17c-7.168,0-13,5.832-13,13v39c0,7.168,5.832,13,13,13h39c7.168,0,13-5.832,13-13V30	c0-7.168-5.832-13-13-13H30z M30,19h39c6.065,0,11,4.935,11,11v39c0,6.065-4.935,11-11,11H30c-6.065,0-11-4.935-11-11V30	C19,23.935,23.935,19,30,19z"/><path fill="#1f212b" d="M32.838,22C26.862,22,22,26.862,22,32.838v33.326C22,72.14,26.862,77,32.838,77h33.324	C72.138,77,77,72.139,77,66.164V47.502c0-0.276-0.224-0.5-0.5-0.5s-0.5,0.224-0.5,0.5v18.662C76,71.588,71.586,76,66.162,76H32.838	C27.414,76,23,71.588,23,66.164V32.838C23,27.414,27.414,23,32.838,23H66.5c0.276,0,0.5-0.224,0.5-0.5c0-0.276-0.224-0.5-0.5-0.5	H32.838z M76.5,37.002c-0.276,0-0.5,0.224-0.5,0.5v2c0,0.276,0.224,0.5,0.5,0.5s0.5-0.224,0.5-0.5v-2	C77,37.226,76.776,37.002,76.5,37.002z M76.5,41.002c-0.276,0-0.5,0.224-0.5,0.5v4c0,0.276,0.224,0.5,0.5,0.5s0.5-0.224,0.5-0.5v-4	C77,41.226,76.776,41.002,76.5,41.002z"/><path fill="#fefdef" d="M68.659,42.346l1.538-8.846h-9.477l0.923-5H39.428v5h-9.231l1.538,10.385l-1.538,23.077l9.231-2.462 v7.754L53.5,69.485V62.5l16.647,1.489L68.659,42.346z"/><path fill="#1f212b" d="M39.428,72.754c-0.115,0-0.228-0.04-0.317-0.114c-0.116-0.095-0.183-0.236-0.183-0.386V65.15 l-8.602,2.295c-0.156,0.038-0.322,0.005-0.447-0.098c-0.124-0.102-0.192-0.258-0.181-0.419l1.535-23.023l-1.531-10.332 c-0.021-0.144,0.021-0.29,0.116-0.399C29.914,33.063,30.052,33,30.197,33h8.731v-4.5c0-0.276,0.224-0.5,0.5-0.5h22.215 c0.148,0,0.29,0.066,0.384,0.18c0.095,0.114,0.134,0.265,0.107,0.411L61.321,33h8.876c0.147,0,0.288,0.065,0.383,0.178 c0.095,0.113,0.135,0.263,0.11,0.408l-1.528,8.786l1.483,21.583c0.01,0.146-0.044,0.289-0.149,0.392 c-0.105,0.102-0.25,0.149-0.395,0.141L54,63.047v6.438c0,0.239-0.169,0.444-0.403,0.49l-14.072,2.77 C39.493,72.751,39.46,72.754,39.428,72.754z M39.428,64c0.109,0,0.216,0.036,0.305,0.104c0.123,0.095,0.195,0.241,0.195,0.396 v7.146L53,69.073V62.5c0-0.141,0.059-0.274,0.163-0.369c0.103-0.094,0.243-0.136,0.382-0.129l16.063,1.438L68.16,42.38 c-0.002-0.04,0-0.08,0.006-0.12L69.603,34h-8.882c-0.148,0-0.29-0.066-0.384-0.18c-0.095-0.114-0.134-0.265-0.107-0.411L61.043,29 H39.928v4.5c0,0.276-0.224,0.5-0.5,0.5h-8.651l1.454,9.812c0.005,0.035,0.007,0.071,0.004,0.106l-1.492,22.381l8.557-2.282 C39.342,64.006,39.385,64,39.428,64z"/><path fill="#6b6aaf" d="M42.505,31.5v36.923l7.961-1.538V52.533h6.067v-7.067h-6.067V39.4h5.885l1.538-7.9H42.505z"/><path fill="#1f212b" d="M42.505,68.923c-0.115,0-0.228-0.04-0.318-0.114c-0.115-0.095-0.182-0.236-0.182-0.386V31.5 c0-0.276,0.224-0.5,0.5-0.5H57.89c0.149,0,0.291,0.066,0.386,0.182c0.095,0.115,0.134,0.268,0.105,0.414l-1.538,7.9 c-0.046,0.234-0.251,0.404-0.491,0.404h-5.385v5.066h5.566c0.276,0,0.5,0.224,0.5,0.5v7.066c0,0.276-0.224,0.5-0.5,0.5h-5.566 v13.852c0,0.239-0.17,0.445-0.405,0.491L42.6,68.914C42.569,68.92,42.537,68.923,42.505,68.923z M43.005,32v35.817l6.961-1.346 V52.533c0-0.276,0.224-0.5,0.5-0.5h5.566v-6.066h-5.566c-0.276,0-0.5-0.224-0.5-0.5V39.4c0-0.276,0.224-0.5,0.5-0.5h5.473 l1.343-6.9H43.005z"/><g><path fill="#1f212b" d="M34.572,62c-0.112,0-0.223-0.038-0.313-0.109c-0.128-0.103-0.197-0.261-0.187-0.425l1.155-17.068 c0.005-0.075,0.008-0.15,0.008-0.227c0-0.163-0.012-0.326-0.035-0.488l-0.886-6.111c-0.021-0.144,0.021-0.289,0.117-0.398 C34.526,37.063,34.665,37,34.81,37h4.619c0.276,0,0.5,0.224,0.5,0.5s-0.224,0.5-0.5,0.5h-4.041l0.803,5.541 c0.03,0.21,0.045,0.42,0.045,0.63c0,0.098-0.003,0.196-0.01,0.294L35.12,60.816l3.018-0.892c0.419-0.124,0.854-0.187,1.291-0.187 c0.276,0,0.5,0.224,0.5,0.5s-0.224,0.5-0.5,0.5c-0.341,0-0.681,0.049-1.008,0.146l-3.707,1.096C34.667,61.993,34.62,62,34.572,62z M65.842,60.245c-0.011,0-0.022,0-0.033-0.001l-7.875-0.519c-0.276-0.019-0.484-0.256-0.466-0.532 c0.019-0.274,0.256-0.502,0.532-0.466l7.304,0.481l-1.134-16.25c-0.007-0.103-0.01-0.204-0.01-0.306 c0-0.243,0.021-0.488,0.061-0.73L64.884,38h-4.163c-0.276,0-0.5-0.224-0.5-0.5s0.224-0.5,0.5-0.5h4.755 c0.147,0,0.287,0.064,0.382,0.178c0.095,0.112,0.136,0.261,0.111,0.405l-0.762,4.506c-0.032,0.188-0.047,0.376-0.047,0.564 c0,0.078,0.002,0.156,0.008,0.235l1.173,16.821c0.01,0.145-0.043,0.286-0.145,0.388C66.102,60.192,65.974,60.245,65.842,60.245z M55.972,59.595c-0.011,0-0.022,0-0.033-0.001l-2.43-0.16c-0.079-0.005-0.156-0.008-0.234-0.008c-0.276,0-0.5-0.224-0.5-0.5 s0.224-0.5,0.5-0.5c0.1,0,0.2,0.003,0.3,0.01l2.43,0.16c0.276,0.019,0.484,0.257,0.466,0.532 C56.453,59.392,56.233,59.595,55.972,59.595z"/></g></svg>