<?xml version="1.0" encoding="UTF-8" standalone="no"?>
<!DOCTYPE svg PUBLIC "-//W3C//DTD SVG 1.1//EN" "http://www.w3.org/Graphics/SVG/1.1/DTD/svg11.dtd">
<svg width="50px" height="50px" viewBox="0 0 276 276" version="1.1" xmlns="http://www.w3.org/2000/svg" xmlns:xlink="http://www.w3.org/1999/xlink" xml:space="preserve" xmlns:serif="http://www.serif.com/" style="fill-rule:evenodd;clip-rule:evenodd;stroke-linejoin:round;stroke-miterlimit:2;">
    <g transform="matrix(1,0,0,1,-562.625,-92.7767)">
        <path id="Nagao" d="M700.479,92.777C776.563,92.777 838.334,154.547 838.334,230.631C838.334,306.715 776.563,368.486 700.479,368.486C624.395,368.486 562.625,306.715 562.625,230.631C562.625,154.547 624.395,92.777 700.479,92.777ZM700.479,103.391C630.254,103.391 573.239,160.405 573.239,230.631C573.239,300.857 630.254,357.871 700.479,357.871C770.705,357.871 827.719,300.857 827.719,230.631C827.719,160.405 770.705,103.391 700.479,103.391ZM700.479,107.623C768.369,107.623 823.487,162.741 823.487,230.631C823.487,298.521 768.369,353.639 700.479,353.639C632.59,353.639 577.472,298.521 577.472,230.631C577.472,162.741 632.59,107.623 700.479,107.623ZM782.975,310.092C802.828,289.487 815.042,261.474 815.042,230.631C815.042,167.402 763.708,116.068 700.479,116.068C637.25,116.068 585.916,167.402 585.916,230.631C585.916,261.474 598.131,289.487 617.984,310.092L759.56,168.516C760.397,167.678 761.287,168.148 762.125,168.986C762.962,169.823 763.433,170.713 762.595,171.551L621.019,313.127C641.623,332.979 669.636,345.194 700.479,345.194C731.323,345.194 759.335,332.979 779.94,313.127L726.417,259.604L729.502,256.619L782.975,310.092ZM703.324,282.472L722.029,300.571L762.253,300.692L742.415,280.854L703.324,282.472ZM697.634,282.472L678.93,300.571L638.705,300.692L658.544,280.854L697.634,282.472ZM752.851,234.025L770.42,252.18L770.54,292.405L750.702,272.567L752.275,234.582L752.851,234.025ZM648.638,233.476L630.539,252.18L630.419,292.405L650.257,272.567L648.638,233.476ZM705.84,274.532L666.494,272.903L662.428,276.97L701.643,278.593L705.84,274.532ZM711.699,273.846L734.465,272.903L738.531,276.97L707.127,278.27L711.699,273.846ZM715.796,264.897L676.142,263.256L670.378,269.019L709.848,270.653L715.796,264.897ZM722.546,263.35L724.817,263.256L730.581,269.019L716.066,269.62L722.546,263.35ZM748.061,238.66L743.649,242.929L742.751,264.616L746.818,268.683L748.061,238.66ZM656.578,225.271L658.207,264.616L654.141,268.683L652.517,229.468L656.578,225.271ZM759.89,222.23L721.137,218.26L680.026,259.372L719.805,261.019L759.89,222.23ZM666.213,215.314L667.855,254.969L662.091,260.732L660.457,221.262L666.213,215.314ZM739.436,247.006L733.183,253.056L733.104,254.969L738.867,260.732L739.436,247.006ZM708.881,171.221L712.851,209.973L671.739,251.085L670.092,211.306L708.881,171.221ZM656.02,220.698L648.025,228.96L641.069,222.23L656.02,220.698ZM665.434,210.969L660.619,215.945L637.068,218.358L632.878,214.304L665.434,210.969ZM768.08,214.304L729.088,210.309L725.022,214.376L763.891,218.358L768.08,214.304ZM622.939,204.686L662.223,200.662L667.987,206.425L628.877,210.432L622.939,204.686ZM778.019,204.686L738.735,200.662L732.972,206.425L772.082,210.432L778.019,204.686ZM716.807,163.03L720.801,202.023L716.735,206.089L712.753,167.219L716.807,163.03ZM671.507,204.694L674.492,201.609L641.399,168.516C640.561,167.678 639.672,168.148 638.834,168.986C637.996,169.823 637.526,170.713 638.364,171.551L671.507,204.694ZM648.316,186.755L608.458,190.673L618.938,200.814L658.339,196.778L648.316,186.755ZM782.021,200.814L742.619,196.778L752.643,186.755L792.501,190.673L782.021,200.814ZM674.534,153.091L670.51,192.375L676.274,198.139L680.28,159.029L674.534,153.091ZM726.424,153.091L730.449,192.375L724.685,198.139L720.679,159.029L726.424,153.091ZM680.876,195.011L685.89,189.83L688.206,167.219L684.152,163.03L680.876,195.011ZM670.662,149.09L666.626,188.491L656.603,178.468L660.521,138.61L670.662,149.09ZM744.356,178.468L740.437,138.61L730.296,149.09L734.333,188.491L744.356,178.468ZM697.988,177.328L690.679,184.881L692.078,171.221L697.988,177.328Z"/>
    </g>
</svg>
