<svg xmlns="http://www.w3.org/2000/svg"  viewBox="0 0 64 64" width="64px" height="64px"><linearGradient id="~XWcN77TDp_RVXp7m4Cioa" x1="12.355" x2="12.355" y1="8.4" y2="45.89" gradientUnits="userSpaceOnUse"><stop offset="0" stop-color="#e6abff"/><stop offset="1" stop-color="#6dc7ff"/></linearGradient><path fill="url(#~XWcN77TDp_RVXp7m4Cioa)" d="M18.082,32c0,0-0.668,0.872-1.382,2.202c0.511-1.228,1.21-3.848,0.193-7.639	C18.681,24.397,19.9,20.232,19.9,16.5c0,0-2.199,0.735-3.863,1.778C19.947,14.149,19.8,8.4,19.8,8.4s-3.768,1.044-6.801,4.59	C12.993,11.98,12,9,12,9c-3.954,2.966-4.738,6.909-4.41,11.435C6.73,19.416,6,19,6,19c-2.617,7.85,0.852,10.982,1.781,11.654	c-1.036-0.31-2.235-0.51-3.581-0.454c0,0,0.847,6.238,5.527,8.557C8.645,38.789,8,39,8,39c0,9,12,6.6,12,6.6S22,38,18.082,32z"/><linearGradient id="~XWcN77TDp_RVXp7m4Ciob" x1="12.355" x2="12.355" y1="8.4" y2="45.89" gradientTransform="matrix(-1 0 0 1 64 0)" gradientUnits="userSpaceOnUse"><stop offset="0" stop-color="#e6abff"/><stop offset="1" stop-color="#6dc7ff"/></linearGradient><path fill="url(#~XWcN77TDp_RVXp7m4Ciob)" d="M45.918,32c0,0,0.668,0.872,1.382,2.202c-0.511-1.228-1.21-3.848-0.193-7.639	C45.319,24.397,44.1,20.232,44.1,16.5c0,0,2.199,0.735,3.863,1.778C44.053,14.149,44.2,8.4,44.2,8.4s3.768,1.044,6.801,4.59	C51.007,11.98,52,9,52,9c3.954,2.966,4.738,6.909,4.41,11.435C57.27,19.416,58,19,58,19c2.617,7.85-0.852,10.982-1.781,11.654	c1.036-0.31,2.235-0.51,3.581-0.454c0,0-0.847,6.238-5.527,8.557C55.355,38.789,56,39,56,39c0,9-12,6.6-12,6.6S42,38,45.918,32z"/><linearGradient id="~XWcN77TDp_RVXp7m4Cioc" x1="32" x2="32" y1="7.096" y2="60.995" gradientUnits="userSpaceOnUse"><stop offset="0" stop-color="#1a6dff"/><stop offset="1" stop-color="#c822ff"/></linearGradient><path fill="url(#~XWcN77TDp_RVXp7m4Cioc)" d="M34.882,46.995L39,44l-3.87-34H34v33l-2,1.636L30,43V10h-1.13L25,44l4.118,2.995L23,52	l9,8.995L41,52L34.882,46.995z M28,52l4-2.909L36,52l-4,4.239L28,52z M18.919,31.453l-0.509-0.779	c0.031-1.116-0.087-2.418-0.434-3.879C19.709,24.401,20.9,20.313,20.9,16.5v-1.388l-1.316,0.439	c-0.027,0.009-0.246,0.084-0.566,0.204c1.837-3.607,1.788-7.16,1.782-7.382l-0.034-1.277l-1.232,0.34	c-0.175,0.048-3.09,0.884-5.919,3.473c-0.259-0.98-0.569-1.933-0.666-2.225L12.51,7.368L11.4,8.2	c-3.838,2.878-4.794,6.589-4.874,9.949c-0.011-0.007-0.028-0.017-0.033-0.02l-1.058-0.599l-0.384,1.153	c-1.741,5.222-0.95,8.54,0.18,10.521c-0.348-0.016-0.705-0.02-1.073-0.003l-1.095,0.045l0.146,1.086	c0.032,0.238,0.706,4.913,3.973,7.886L7,38.279V39c0,2.507,0.842,4.468,2.502,5.829c2.037,1.67,4.911,2.063,7.167,2.063	c1.922,0,3.397-0.286,3.527-0.312l0.612-0.122l0.159-0.604C21.053,45.527,23.033,37.752,18.919,31.453z M6.528,20.737	c0.836,0.88,1.958,2.496,2.491,5.16l1.961-0.393c-0.503-2.517-1.485-4.267-2.404-5.434c-0.255-4.219,0.627-7.116,2.916-9.33	c0.214,0.737,0.399,1.466,0.471,1.932c-0.674,0.835-1.311,1.784-1.859,2.881l1.789,0.895c1.893-3.786,5.021-5.707,6.808-6.543	c-0.275,2.273-1.32,6.639-5.257,9.264l1.109,1.664c0.811-0.541,1.516-1.141,2.13-1.776c0.699-0.425,1.492-0.799,2.151-1.077	c-0.193,2.274-0.813,4.547-1.667,6.268c-0.084-0.214-0.156-0.422-0.25-0.641l-0.501-1.169L15.4,23.2	c-0.161,0.121-3.559,2.728-4.27,7.883c-0.737-0.466-1.719-0.976-2.91-1.35C7.381,29.069,5.022,26.608,6.528,20.737z M5.441,31.223	c0.71,0.057,1.351,0.202,1.949,0.376c0.06,0.039,0.105,0.065,0.121,0.074l0.02-0.035c2.337,0.716,3.744,2.052,3.762,2.07L13,35.414	V33c0-3.604,1.543-6.003,2.61-7.232c1.366,4.007,0.709,6.71,0.22,7.934c-0.695,1.291-1.433,3-1.713,4.823	c-1.615-0.605-3.034-0.775-4.127-0.773C7.142,36.224,5.905,32.971,5.441,31.223z M19.166,44.72c-1.624,0.219-5.954,0.567-8.399-1.44	c-1.014-0.833-1.583-1.975-1.729-3.475c0.134-0.018,0.288-0.032,0.456-0.043c0.034,0.016,0.064,0.036,0.099,0.052l0.025-0.056	c1.114-0.055,2.858,0.098,4.935,1.138L16,41.618V40c0-1.591,0.557-3.203,1.179-4.519c0.08-0.13,0.241-0.412,0.422-0.839	c0.142-0.263,0.282-0.513,0.414-0.733C20.103,38.206,19.481,43.027,19.166,44.72z M43.033,45.854l0.159,0.604l0.612,0.122	c0.129,0.026,1.604,0.312,3.527,0.312c2.257,0,5.131-0.394,7.167-2.063C56.158,43.468,57,41.507,57,39v-0.721l-0.182-0.061	c3.266-2.972,3.941-7.648,3.973-7.886l0.146-1.086l-1.095-0.045c-0.368-0.016-0.725-0.013-1.073,0.003	c1.13-1.98,1.921-5.299,0.18-10.521l-0.384-1.153l-1.058,0.599c-0.005,0.003-0.021,0.013-0.033,0.02	c-0.08-3.361-1.036-7.071-4.874-9.949l-1.11-0.833l-0.439,1.316c-0.097,0.292-0.407,1.245-0.666,2.225	c-2.829-2.589-5.744-3.424-5.919-3.473l-1.232-0.34l-0.034,1.277c-0.006,0.221-0.055,3.774,1.782,7.382	c-0.32-0.12-0.539-0.195-0.566-0.204L43.1,15.112V16.5c0,3.813,1.191,7.901,2.924,10.295c-0.347,1.461-0.466,2.763-0.434,3.879	l-0.509,0.779C40.967,37.752,42.947,45.527,43.033,45.854z M55.78,29.733c-1.19,0.374-2.172,0.884-2.91,1.35	c-0.711-5.155-4.109-7.762-4.27-7.883l-1.018-0.764l-0.501,1.169c-0.094,0.219-0.166,0.427-0.25,0.641	c-0.854-1.721-1.474-3.993-1.667-6.268c0.659,0.278,1.452,0.652,2.151,1.077c0.615,0.635,1.319,1.235,2.13,1.776l1.109-1.664	c-3.938-2.625-4.982-6.991-5.257-9.264c1.787,0.836,4.916,2.758,6.808,6.543l1.789-0.895c-0.548-1.096-1.185-2.046-1.859-2.881	c0.072-0.466,0.258-1.196,0.471-1.932c2.29,2.214,3.171,5.112,2.916,9.33c-0.918,1.166-1.9,2.916-2.404,5.434l1.961,0.393	c0.533-2.664,1.655-4.28,2.491-5.16C58.978,26.608,56.619,29.069,55.78,29.733z M54.01,37.751c-1.093-0.002-2.512,0.168-4.127,0.773	c-0.28-1.823-1.018-3.532-1.713-4.823c-0.489-1.224-1.146-3.927,0.22-7.934C49.457,26.997,51,29.396,51,33v2.414l1.707-1.707	c0.018-0.017,1.425-1.354,3.762-2.07l0.02,0.035c0.016-0.009,0.06-0.035,0.121-0.074c0.598-0.174,1.239-0.318,1.949-0.376	C58.095,32.971,56.858,36.224,54.01,37.751z M45.985,33.909c0.132,0.22,0.272,0.47,0.414,0.733c0.181,0.427,0.342,0.709,0.422,0.839	C47.443,36.797,48,38.409,48,40v1.618l1.447-0.724c2.078-1.039,3.821-1.193,4.935-1.138l0.025,0.056	c0.035-0.016,0.065-0.036,0.099-0.052c0.168,0.011,0.321,0.026,0.456,0.043c-0.145,1.5-0.714,2.641-1.729,3.475	c-2.445,2.007-6.776,1.66-8.399,1.44C44.519,43.027,43.897,38.206,45.985,33.909z"/></svg>