<svg xmlns="http://www.w3.org/2000/svg"  viewBox="0 0 80 80" width="80px" height="80px" fill-rule="evenodd" clip-rule="evenodd" baseProfile="basic"><path fill="#4b6677" fill-rule="evenodd" d="M39.999,2.507	c20.696,0,37.495,16.797,37.495,37.493S60.695,77.493,39.999,77.493S2.504,60.696,2.504,40S19.303,2.507,39.999,2.507z" clip-rule="evenodd"/><path fill="#40396e" fill-rule="evenodd" d="M2.004,40	c0-20.972,17.021-37.993,37.995-37.993c20.972,0,37.995,17.021,37.995,37.993c0,20.973-17.023,37.993-37.995,37.993	C19.025,77.993,2.004,60.973,2.004,40z M76.993,40c0-20.419-16.576-36.993-36.995-36.993C19.579,3.007,3.004,19.581,3.004,40	c0,20.42,16.575,36.993,36.995,36.993C60.417,76.993,76.993,60.42,76.993,40z" clip-rule="evenodd"/><path fill="#dbf1ff" fill-rule="evenodd" d="M39.999,8.499	c17.389,0,31.503,14.113,31.503,31.501S57.388,71.501,39.999,71.501S8.496,57.388,8.496,40S22.609,8.499,39.999,8.499z" clip-rule="evenodd"/><path fill="#40396e" fill-rule="evenodd" d="M7.996,40	c0-17.664,14.336-32.001,32.003-32.001c17.665,0,32.003,14.337,32.003,32.001c0,17.665-14.337,32.001-32.003,32.001	C22.332,72.001,7.996,57.665,7.996,40z M71.001,40c0-17.111-13.891-31.001-31.003-31.001C22.885,8.999,8.996,22.889,8.996,40	c0,17.112,13.889,31.001,31.003,31.001C57.111,71.001,71.001,57.112,71.001,40z" clip-rule="evenodd"/><path fill="#78889c" d="M40,7v57L8,52L40,7z"/><path fill="#b5ddf5" fill-rule="evenodd" d="M40,7v57l32-12L40,7z" clip-rule="evenodd"/><path fill="#7497c4" fill-rule="evenodd" d="M39.531,64.176	c-0.096-0.259,0.035-0.547,0.293-0.644l31.391-11.771L39.592,7.291c-0.16-0.225-0.108-0.537,0.117-0.697	c0.225-0.16,0.537-0.108,0.697,0.117l32,45c0.191,0.268,0.075,0.643-0.232,0.759l-32,12C39.916,64.565,39.628,64.435,39.531,64.176z" clip-rule="evenodd"/><path fill="#66788f" fill-rule="evenodd" d="M39.824,64.469l-32-12	c-0.307-0.116-0.423-0.491-0.232-0.759l32-45C39.873,6.316,40.5,6.516,40.5,7v57C40.5,64.349,40.151,64.591,39.824,64.469z M39.5,63.279V8.567L8.784,51.761L39.5,63.279z" clip-rule="evenodd"/><path fill="#dbf1ff" fill-rule="evenodd" d="M39.999,29.499	c5.797,0,10.503,4.705,10.503,10.501s-4.705,10.501-10.503,10.501S29.496,45.796,29.496,40S34.201,29.499,39.999,29.499z" clip-rule="evenodd"/><path fill="#66788f" fill-rule="evenodd" d="M28.996,40	c0-6.072,4.928-11.001,11.003-11.001c6.073,0,11.003,4.929,11.003,11.001c0,6.073-4.929,11.001-11.003,11.001	C33.924,51.001,28.996,46.073,28.996,40z M50.001,40c0-5.519-4.483-10.001-10.003-10.001c-5.521,0-10.003,4.483-10.003,10.001	c0,5.52,4.481,10.001,10.003,10.001C45.519,50.001,50.001,45.52,50.001,40z" clip-rule="evenodd"/><path fill="#4b6677" fill-rule="evenodd" d="M39.999,33.487	c3.596,0,6.515,2.919,6.515,6.513c0,3.595-2.919,6.513-6.515,6.513S33.484,43.595,33.484,40	C33.484,36.405,36.403,33.487,39.999,33.487z" clip-rule="evenodd"/><path fill="#40396e" fill-rule="evenodd" d="M32.984,40	c0-3.871,3.141-7.013,7.015-7.013c3.872,0,7.015,3.143,7.015,7.013c0,3.872-3.143,7.013-7.015,7.013	C36.125,47.013,32.984,43.872,32.984,40z M46.013,40c0-3.317-2.696-6.013-6.015-6.013c-3.32,0-6.015,2.696-6.015,6.013	c0,3.319,2.695,6.013,6.015,6.013C43.317,46.013,46.013,43.319,46.013,40z" clip-rule="evenodd"/></svg>